<svg width="25" height="25" viewBox="0 0 25 25" fill="none" xmlns="http://www.w3.org/2000/svg">
<path d="M10.3257 12.8536L11.5754 14.1465L10.2084 15.5607L6.625 11.8536L10.2084 8.14648L11.5754 9.5607L10.3257 10.8536H18.625V12.8536H10.3257Z" fill="#8E8E8E"/>
<path fill-rule="evenodd" clip-rule="evenodd" d="M12.625 23.1465C18.7001 23.1465 23.625 18.2216 23.625 12.1465C23.625 6.07135 18.7001 1.14648 12.625 1.14648C6.54987 1.14648 1.625 6.07135 1.625 12.1465C1.625 18.2216 6.54987 23.1465 12.625 23.1465ZM12.625 3.14648C17.5956 3.14648 21.625 7.17592 21.625 12.1465C21.625 17.117 17.5956 21.1465 12.625 21.1465C7.65444 21.1465 3.625 17.117 3.625 12.1465C3.625 7.17592 7.65444 3.14648 12.625 3.14648Z" fill="#8E8E8E"/>
</svg>
