<svg width="25" height="25" viewBox="0 0 25 25"  xmlns="http://www.w3.org/2000/svg">
<path d="M14.9243 12.8536L13.6746 14.1465L15.0416 15.5607L18.625 11.8536L15.0416 8.14648L13.6746 9.5607L14.9243 10.8536H6.625V12.8536H14.9243Z" />
<path fill-rule="evenodd" clip-rule="evenodd" d="M12.625 23.1465C6.54987 23.1465 1.625 18.2216 1.625 12.1465C1.625 6.07135 6.54987 1.14648 12.625 1.14648C18.7001 1.14648 23.625 6.07135 23.625 12.1465C23.625 18.2216 18.7001 23.1465 12.625 23.1465ZM12.625 3.14648C7.65444 3.14648 3.625 7.17592 3.625 12.1465C3.625 17.117 7.65444 21.1465 12.625 21.1465C17.5956 21.1465 21.625 17.117 21.625 12.1465C21.625 7.17592 17.5956 3.14648 12.625 3.14648Z" />
</svg>
