<svg width="25" height="25" viewBox="0 0 25 25" fill="none" xmlns="http://www.w3.org/2000/svg">
<path d="M17.4572 11.4394L12.7501 6.7323L8.04297 11.4394L9.45718 12.8536L11.7501 10.5607V17.1465H13.7501V10.5607L16.043 12.8536L17.4572 11.4394Z" fill="#8E8E8E"/>
<path fill-rule="evenodd" clip-rule="evenodd" d="M12.75 23.1465C18.8251 23.1465 23.75 18.2216 23.75 12.1465C23.75 6.07135 18.8251 1.14648 12.75 1.14648C6.67487 1.14648 1.75 6.07135 1.75 12.1465C1.75 18.2216 6.67487 23.1465 12.75 23.1465ZM12.75 3.14648C17.7206 3.14648 21.75 7.17592 21.75 12.1465C21.75 17.117 17.7206 21.1465 12.75 21.1465C7.77944 21.1465 3.75 17.117 3.75 12.1465C3.75 7.17592 7.77944 3.14648 12.75 3.14648Z" fill="#8E8E8E"/>
</svg>
