<svg width="25" height="25" viewBox="0 0 25 25" fill="none" xmlns="http://www.w3.org/2000/svg">
<path d="M7.48032 12.4394L12.1874 17.1465L16.8945 12.4394L15.4803 11.0252L13.1874 13.3181L13.1874 6.73227H11.1874L11.1874 13.3181L8.89453 11.0252L7.48032 12.4394Z" fill="#8E8E8E"/>
<path fill-rule="evenodd" clip-rule="evenodd" d="M12.1875 23.1465C18.2626 23.1465 23.1875 18.2216 23.1875 12.1465C23.1875 6.07135 18.2626 1.14648 12.1875 1.14648C6.11237 1.14648 1.1875 6.07135 1.1875 12.1465C1.1875 18.2216 6.11237 23.1465 12.1875 23.1465ZM12.1875 3.14648C17.1581 3.14648 21.1875 7.17592 21.1875 12.1465C21.1875 17.117 17.1581 21.1465 12.1875 21.1465C7.21694 21.1465 3.1875 17.117 3.1875 12.1465C3.1875 7.17592 7.21694 3.14648 12.1875 3.14648Z" fill="#8E8E8E"/>
</svg>
