<svg width="25" height="24" viewBox="0 0 25 24" fill="none" xmlns="http://www.w3.org/2000/svg">
<path d="M4.625 22C3.52043 22 2.625 21.1046 2.625 20V4C2.625 2.89543 3.52043 2 4.625 2H20.625C21.7296 2 22.625 2.89543 22.625 4V20C22.625 21.1046 21.7296 22 20.625 22H4.625ZM19.0392 10.0001L14.3321 5.29297L12.9179 6.70718L15.2108 9.00008H12.625C9.86358 9.00008 7.625 11.2387 7.625 14.0001V19.0001H9.625V14.0001C9.625 12.3432 10.9681 11.0001 12.625 11.0001H15.2108L12.9179 13.293L14.3321 14.7072L19.0392 10.0001Z" fill="#8E8E8E"/>
</svg>
