<svg width="25" height="24" viewBox="0 0 25 24" fill="none" xmlns="http://www.w3.org/2000/svg">
<path d="M18.3321 1.29297L16.9179 2.70718L19.2108 5.00008H16.625C13.8636 5.00008 11.625 7.23865 11.625 10.0001V17.0001H13.625V10.0001C13.625 8.34322 14.9681 7.00008 16.625 7.00008H19.2108L16.9179 9.29297L18.3321 10.7072L23.0392 6.00008L18.3321 1.29297Z" fill="#8E8E8E"/>
<path d="M2.625 4.00008C2.625 2.89551 3.52043 2.00008 4.625 2.00008H12.625V4.00008L4.625 4.00008V20.0001H20.625V12.0001H22.625V20.0001C22.625 21.1046 21.7296 22.0001 20.625 22.0001H4.625C3.52043 22.0001 2.625 21.1046 2.625 20.0001V4.00008Z" fill="#8E8E8E"/>
</svg>
