<svg width="25" height="24" viewBox="0 0 25 24" fill="none" xmlns="http://www.w3.org/2000/svg">
<path d="M12.4375 3C17.4081 3 21.4375 7.02944 21.4375 12C21.4375 16.9706 17.4081 21 12.4375 21C7.46694 21 3.4375 16.9706 3.4375 12C3.4375 8.88084 5.02341 6.1317 7.4375 4.51542V10H9.4375V2H1.4375V4H4.88774C2.76447 6.00464 1.4375 8.84722 1.4375 12C1.4375 18.0751 6.36237 23 12.4375 23C18.5126 23 23.4375 18.0751 23.4375 12C23.4375 5.92487 18.5126 1 12.4375 1V3ZM7.09351 4L7.4375 4.5139V4H7.09351Z" fill="#8E8E8E"/>
</svg>
